<?xml version="1.0" encoding="UTF-8" standalone="no"?>
<!-- Created with Inkscape (http://www.inkscape.org/) -->
<!DOCTYPE svg PUBLIC "-//W3C//DTD SVG 1.1//EN" "http://www.w3.org/Graphics/SVG/1.1/DTD/svg11.dtd">
<svg
   xmlns:svg="http://www.w3.org/2000/svg"
   xmlns="http://www.w3.org/2000/svg"
   version="1.1"
   width="400"
   height="400"
   id="svg2816"
   xml:space="preserve"><defs
     id="defs2820" /><g
     transform="matrix(1.25,0,0,-1.25,0,399.99999)"
     id="g2826"><g
       transform="matrix(1.005291,0,0,1.005291,-0.84656,-0.84655795)"
       id="g3008"><path
         d="m -118.18177,143.8139 a 20.349178,28.371449 0 1 1 -40.69835,0 20.349178,28.371449 0 1 1 40.69835,0 z"
         transform="matrix(7.4300985,0,0,-5.3291745,1189.2986,926.40938)"
         id="path2974"
         style="fill:white;fill-opacity:1;fill-rule:evenodd;stroke:none" /><path
         d="M 200,11 C 102.24086,11 21.808358,85.239378 12,180.40625 c -0.0021,0.0206 0.0021,0.0419 0,0.0625 -0.04485,0.43658 -0.08313,0.87504 -0.125,1.3125 -0.117454,1.22704 -0.218624,2.45373 -0.3125,3.6875 -0.11456,1.54836 -0.23452,3.09784 -0.3125,4.65625 -0.0027,0.0521 0.0026,0.10418 0,0.15625 -0.07779,1.57977 -0.147745,3.16037 -0.1875,4.75 -8.09e-4,0.0313 7.94e-4,0.0624 0,0.0937 C 11.022969,196.73606 11,198.37929 11,200 c 0,1.63093 0.02143,3.25397 0.0625,4.875 5.13e-4,0.0208 -5.2e-4,0.0417 0,0.0625 0.04106,1.60002 0.106908,3.19136 0.1875,4.78125 0.0021,0.0415 -0.0021,0.0835 0,0.125 0.08055,1.56871 0.193925,3.12913 0.3125,4.6875 0.07829,1.05584 0.186122,2.10525 0.28125,3.15625 0.05024,0.5408 0.07021,1.08553 0.125,1.625 0.0082,0.0833 0.0229,0.16671 0.03125,0.25 0.0075,0.0733 0.02362,0.14545 0.03125,0.21875 C 21.926557,314.85735 102.3056,389 200,389 c 99.42305,0 180.92262,-76.7852 188.4375,-174.28125 0.005,-0.0621 -0.005,-0.12542 0,-0.1875 0.11857,-1.55837 0.23195,-3.11879 0.3125,-4.6875 0.002,-0.0415 -0.002,-0.0835 0,-0.125 0.16329,-3.22128 0.25,-6.4569 0.25,-9.71875 0,-3.31458 -0.0814,-6.60235 -0.25,-9.875 -0.078,-1.55841 -0.1979,-3.10789 -0.3125,-4.65625 C 381.0124,87.883965 299.48655,11 200,11 z m -5.59375,10.84375 0,156.6875 c 0,3.23354 -14.53359,3.78125 -18.3125,3.78125 -2.0428,-3.05086 -6.9375,-9.3553 -6.9375,-13.90625 l 0,-19.5625 c 0,-4.1976 15.8932,-9.31197 18,-12.4375 L 156.5625,83.875 l 5,-3.21875 C 159.61704,77.7494 148.97649,66.125 145.15625,66.125 l -23.375,0 c -1.14007,0 -1.74491,0.303275 -1.90625,1.25 0.73871,1.062737 0.10213,1.28125 1.90625,1.28125 l 1.90625,0 0,11.34375 1.90625,0 c -0.31604,3.776238 -18.36309,11.9701 -22.25,14.40625 -4.364275,2.729512 -19.163663,12.125 -24.5,12.125 l -1.90625,0 c -4.248269,0 -13.872156,-10.615938 -19.3125,-10.28125 l 15.53125,13.4375 C 72.826896,111.10359 72.5,111.13698 72.5,112.84375 l 0,0.625 c 0,2.5415 4.526302,8.90892 6.34375,10.125 l 6.21875,0.0625 4.53125,7.53125 8.8125,0 c 1.82012,1.21874 16.4375,13.66358 16.4375,15.125 0,4.55362 -8.875,4.42726 -8.875,8.1875 l 0,39.8125 -84.125,0 C 23.31851,147.33086 42.914205,104.96879 73.9375,73.9375 104.98746,42.8942 147.38995,23.297175 194.40625,21.84375 z m 10.75,0 c 27.49508,0.782713 53.39546,7.761588 76.40625,19.625 l 0,24 -30.3125,0 0,-9.46875 c 0,-2.1868 1.04791,-1.172125 2.5,-3.15625 -0.65604,-0.9814 -0.81056,-1.875 -2.5,-1.875 l -20.21875,0 c -4.37361,0 -6.77496,7.621287 -8.59375,10.9375 -1.36409,2.484162 -6.5625,9.738075 -6.5625,12.40625 l 0,120 -10.71875,0 0,-172.46875 z m -28.84375,4.46875 -2.90625,1.28125 c -5.76836,2.55215 -10.87944,7.386225 -14.625,11.5625 -2.69884,3.020188 -4.66778,5.661425 -5.5625,6.9375 -1.20007,-0.24935 -2.525,-0.812187 -3.84375,-1.65625 -2.43349,-1.550763 -4.80048,-3.83255 -6.53125,-5.75 -0.86805,-0.960063 -1.57181,-1.8228 -2.0625,-2.4375 -0.24535,-0.308025 -0.43449,-0.581987 -0.5625,-0.75 l -0.15625,-0.25 -0.71875,-0.9375 -1.0625,0.4375 c -13.43553,5.411012 -23.326,15.205812 -29.84375,23.625 -5.53235,7.151125 -8.63003,13.317063 -9.46875,15.0625 -0.440027,0.134675 -1.250689,0.267337 -2.21875,0.25 -2.265478,0.0037 -5.386844,-0.470063 -7.875,-0.96875 C 87.628254,72.470725 86.53405,72.188013 85.75,72 84.964618,71.813325 84.501334,71.71875 84.5,71.71875 l -1.375,-0.375 -0.40625,1.375 c -0.198679,0.657375 -0.311166,1.337862 -0.3125,2.03125 0.024,3.016188 1.382836,6.456325 2.65625,9.3125 0.568036,1.260087 1.139055,2.387288 1.59375,3.25 -2.260143,0.420038 -4.553621,0.563825 -6.59375,0.5625 -1.898786,0 -3.597175,-0.0974 -4.78125,-0.21875 -0.590705,-0.06137 -1.05498,-0.14345 -1.375,-0.1875 -0.318686,-0.044 -0.5,-0.06387 -0.5,-0.0625 L 71.6875,87.125 l 0,1.75 c 0.008,1.916113 0.759851,3.699812 1.78125,5.28125 3.094861,4.704287 8.80433,8.24449 8.875,8.3125 l 1.59375,-2.5 -0.09375,-0.0625 c -0.501365,-0.328012 -2.882944,-1.956862 -5.09375,-4.125 -1.105402,-1.081412 -2.159536,-2.291925 -2.90625,-3.5 C 75.495727,91.71855 75.196013,91.158375 75,90.625 c 1.26008,0.128012 3.058374,0.25 5.0625,0.25 2.786842,-0.0025 6.030549,-0.251025 9.21875,-1.09375 l 1.90625,-0.5 L 90.21875,87.5625 90,87.25 C 89.539971,86.43395 88.349899,84.267312 87.3125,81.8125 86.311104,79.473675 85.493504,76.82945 85.4375,75 c 0.773382,0.18135 1.765596,0.4349 2.875,0.65625 2.589496,0.516037 5.781331,1.02725 8.4375,1.03125 1.560099,-0.02263 2.912924,-0.148288 4.125,-0.875 l 0.40625,-0.25 0.15625,-0.375 0.15625,-0.3125 c 0.70138,-1.478763 4.17635,-8.413675 10.46875,-16.1875 6.10572,-7.552475 14.85519,-15.8491 26.28125,-20.71875 0.85339,1.080075 2.40496,2.940962 4.34375,4.84375 1.4961,1.466762 3.22163,2.960175 5.09375,4.15625 1.87211,1.189412 3.89911,2.110563 6.03125,2.28125 l 0.875,0.0625 0.5,-0.75 0.0937,-0.125 c 0.49869,-0.73605 2.89003,-4.243587 6.40625,-8.0625 2.83885,-3.093525 6.43051,-6.340275 10.21875,-8.59375 -0.28001,1.737437 -0.5625,4.02715 -0.5625,6.75 0,5.214987 1.00042,11.816937 4.75,18 L 178.625,55 c -3.37221,-5.551012 -4.28258,-11.613788 -4.28125,-16.46875 -0.001,-2.690838 0.28514,-4.995563 0.5625,-6.625 0.13734,-0.814712 0.27366,-1.44165 0.375,-1.875 l 0.125,-0.5 0.0312,-0.15625 0.875,-3.0625 z M 239.25,38.34375 c -5.83237,0 -8.875,1.662125 -8.875,7.5625 l 22.125,0 c 0,-5.900375 -3.01271,-7.5625 -8.84375,-7.5625 l -4.40625,0 z m 47.34375,5.84375 c 14.50625,8.081837 27.80401,18.089262 39.46875,29.75 31.02063,31.03129 50.5864,73.39336 52.0625,120.375 l -89,0 c -3.86158,0 -3.61372,-2.66131 -5.3125,-5.4375 -1.4321,-2.34014 -3.16692,-4.81929 -4.375,-6.96875 -2.98951,-5.323 -4.96856,-9.19803 -7.96875,-14.125 -1.94013,-3.1922 -15.8125,-27.10846 -15.8125,-29.03125 l 0,-24 8.1875,0 c 2.00013,0 2.18063,1.55512 2.75,3.53125 l 14.96875,-7.34375 0,1.90625 c 0,3.28821 -7.5625,6.69779 -7.5625,13.90625 l 0,1.25 c 0,6.93244 2.9293,15.1875 10.09375,15.1875 10.474,0 9.89204,-13.46429 10.71875,-23.40625 -5.36967,0.44803 -6.3125,7.53689 -6.3125,13.28125 -1.24275,0.65605 -1.85313,1.25 -3.78125,1.25 l -1.25,0 c -1.86011,0 -3.8125,-3.60545 -3.8125,-5.65625 l 0,-1.90625 c 0,-5.36567 6.9375,-5.77854 6.9375,-15.8125 1.77078,-0.84939 3.15625,-0.25052 3.15625,-2.5 l 0,-10.125 c 0,-1.910787 -0.74714,-1.726988 -2.53125,-1.875 -0.32802,-1.416087 -0.625,-1.448138 -0.625,-3.15625 l 0,-14.53125 3.8125,0 c 2.80951,0 3.24922,0.869438 3.78125,3.15625 3.72424,-0.310688 6.0097,-3.15625 10.75,-3.15625 l 9.46875,0 c -0.0746,-3.300213 -5.34983,-13.28125 -9.46875,-13.28125 l -18.34375,0 0,-21.28125 z M 131.25,52.21875 c -3.88159,0 -9.46875,1.754288 -9.46875,5.0625 l 0,3.78125 22.75,0 0,-3.78125 c 0,-3.308212 -5.58718,-5.0625 -9.46875,-5.0625 l -3.8125,0 z M 255.65625,78.75 l 25.90625,0 0,17.0625 c -4.7163,1.098737 -5.05055,6.3125 -8.21875,6.3125 l -17.6875,0 0,-23.375 z m -128.84375,17.6875 1.28125,0 c 2.45482,0 2.93207,3.29915 4.4375,5.03125 -2.14413,4.05226 -8.2676,17.71875 -13.28125,17.71875 l -27.125,0 0,-1.90625 c 0,-2.28014 14.05366,-9.45666 16.8125,-10.96875 2.12013,-1.16007 17.32696,-9.875 17.875,-9.875 z m 13.4375,19.28125 8.03125,12.9375 c -1.09873,1.50276 -23.59086,14.53125 -25.875,14.53125 -1.33208,0 -12.82218,-11.00624 -13.90625,-12.625 l 22.6875,-0.0937 9.0625,-14.75 z m -74.875,1.46875 -1.71875,4.125 c -2.010794,4.79498 -2.952718,11.34165 -3.46875,16.75 -0.293351,3.11353 -0.439996,5.80506 -0.5,7.5625 -1.966791,-0.88139 -3.772814,-2.28256 -5.40625,-4 -3.196202,-3.35221 -5.68973,-7.86301 -7.3125,-11.53125 -0.813384,-1.83211 -1.379891,-3.4676 -1.78125,-4.625 -0.201345,-0.5747 -0.368743,-1.02774 -0.46875,-1.34375 -0.09734,-0.31336 -0.125,-0.46875 -0.125,-0.46875 l -1.1875,-4.0625 -1.65625,3.875 c -1.770779,4.21093 -2.40625,8.85438 -2.40625,13.5 0.016,12.53412 4.716229,25.15582 6.375,29.21875 -3.54289,1.63344 -7.37864,2.59564 -10.4375,3.125 -1.708109,0.29735 -3.189351,0.46784 -4.21875,0.5625 -0.514699,0.048 -0.912816,0.0764 -1.1875,0.0937 -0.274685,0.016 -0.40625,-0.002 -0.40625,0 l -2.78125,0.125 1.625,2.25 c 4.629626,6.4444 11.621133,10.99256 17.4375,13.96875 5.819035,2.97219 10.505164,4.35366 10.5625,4.375 l 0.84375,-2.875 -0.1875,-0.0312 c -0.969395,-0.30802 -5.59583,-1.84333 -10.9375,-4.6875 -4.625626,-2.46149 -9.761508,-5.91947 -13.59375,-10.34375 3.629562,-0.40269 10.117884,-1.50647 15.90625,-4.5 L 49.625,167.625 49,166.3125 c -0.0012,0 -0.06865,-0.19164 -0.25,-0.625 -1.280081,-3.01619 -6.450834,-16.2233 -6.4375,-28.71875 0,-2.81351 0.299545,-5.54541 0.90625,-8.15625 0.73738,1.87479 1.733834,4.15568 3.03125,6.5625 1.53343,2.83484 3.490849,5.803 5.875,8.3125 2.382817,2.50015 5.231453,4.55535 8.625,5.46875 l 1.875,0.5 0,-1.9375 c 0,-0.005 -0.0068,-1.02131 0.0625,-2.71875 0.102675,-2.5455 0.370798,-6.57165 0.9375,-10.78125 0.326687,-2.44415 0.77038,-4.92794 1.34375,-7.21875 0.617373,1.94145 1.404854,4.29768 2.40625,6.8125 1.228077,3.08286 2.748471,6.37633 4.53125,9.3125 1.788114,2.93486 3.833096,5.52797 6.28125,7.21875 l 1.28125,0.90625 0.84375,-1.34375 c 0,-0.002 0.200393,-0.36339 0.59375,-0.96875 0.590704,-0.9054 1.54777,-2.312 2.5625,-3.71875 1.009398,-1.40409 2.1062,-2.79636 2.90625,-3.59375 l -2.09375,-2.15625 c -1.36542,1.37342 -2.920001,3.56538 -4.21875,5.4375 -0.528034,0.76271 -0.99631,1.42529 -1.375,2 -1.477427,-1.33343 -2.948585,-3.16036 -4.25,-5.3125 -2.486824,-4.09893 -4.47433,-9.16 -5.84375,-13.15625 C 67.90704,126.44004 67.35469,124.70616 67,123.46875 66.822656,122.85271 66.714339,122.33469 66.625,122 c -0.08934,-0.33603 -0.15625,-0.5 -0.15625,-0.5 L 65.375,117.1875 z M 149.5625,152 l 0,24.03125 -0.5,0.40625 L 135.84375,161.21875 149.5625,152 z m 87.15625,2.5 c 5.57369,0.12262 10.95381,14.68339 13.75,19.125 4.21092,6.69509 7.99466,14.47377 12.15625,20.6875 l -25.90625,0 0,-39.8125 z m -106.75,8.875 c 1.03072,3.8589 10.83089,14.09749 14.09375,16.875 8.85122,7.54581 8.25388,1.23369 16.84375,14.0625 l -35.96875,0 0,-25.25 c 0,-3.44689 2.95379,-4.29541 5.03125,-5.6875 z m 64.4375,22.75 0,8.1875 -9.5,0 c -2.20014,0 -4.55484,-4.70097 -5.65625,-6.34375 l 15.15625,-1.84375 z m -172.5625,18.9375 172.5625,0 0,87.75 c -3.66289,-0.30535 -9.85951,-14.74062 -12.125,-18.1875 -4.19092,-6.38174 -7.45376,-13.03984 -11.25,-19.65625 -2.11614,-3.68156 -3.18286,-5.46155 -5.375,-9.8125 -2.73885,-5.439 -2.58,-5.28341 -7.875,-7.90625 -4.42295,-2.18946 -16.40613,-10.09375 -20.84375,-10.09375 l -24,0 c -1.45342,0 -1.875,0.45149 -1.875,1.90625 0,1.45609 0.42158,1.90625 1.875,1.90625 l 3.15625,0 0,9.4375 -47.34375,0 0,16.40625 6.28125,0 c 8.479203,0 12.446954,13.15371 15.8125,18.96875 2.753507,4.7563 12,17.52396 12,23.375 l -4.4375,0 c -7.325796,0 -14.521044,3.29857 -17.78125,7.4375 -4.813637,6.11372 -4.936166,9.55537 -4.9375,19.5 -0.0026,0.65604 0.111906,1.29821 0.28125,1.90625 -0.674709,-0.65338 -1.367209,-1.27346 -2.03125,-1.9375 -31.159304,-31.1673 -50.775,-73.76902 -52.09375,-121 z m 183.3125,0 173,0 c -1.06806,38.0904 -14.00906,73.15845 -35.34375,101.65625 l -0.625,0 -4.65625,0 -16.84375,0 c -1.7521,1.17207 -4.84404,5.71875 -6.9375,5.71875 l -6.90625,0 0,-4.4375 -22.125,0 0,15.15625 -2.53125,0 0,-82.75 8.21875,0 0,-10.09375 1.875,0 c 1.0334,0 1.90625,-0.36461 1.90625,-1.25 0,-1.45476 -0.45016,-1.90625 -1.90625,-1.90625 l -23.34375,0 c -2.22947,0 -4.9394,6.18369 -9.125,8.5625 -3.36021,1.90679 -8.25039,4.4848 -10.0625,7.625 -4.58829,7.96184 -8.75186,14.88526 -13.4375,22.59375 -2.56149,4.2136 -26.125,44.71339 -26.125,45.21875 0,4.6683 10.09375,3.20835 10.09375,9.46875 l 0,30.9375 c 0,2.44949 -13.06486,21.00552 -15.125,23.375 l 0,-169.875 z m -80.84375,7.5625 c -5.191,0 -10.71875,1.26418 -10.71875,6.3125 l 0,3.15625 25.84375,0 0,-3.15625 c 0,-4.52429 -4.81246,-6.3125 -9.46875,-6.3125 l -5.65625,0 z m 156.625,1.25 c -6.8711,0 -12,1.23565 -12,8.21875 l 24.625,0 c 0,-6.9831 -5.1289,-8.21875 -12,-8.21875 l -0.625,0 z M 84.5,253.6875 l 42.3125,0 c 3.89891,0 6.80406,7.41505 8.4375,10.53125 1.24007,2.36415 6.75,9.92394 6.75,12.21875 0,1.57077 -13.28427,8.39484 -15.59375,9.65625 -3.00687,1.64544 -5.08064,2.86007 -8.1875,4.4375 -4.2656,2.16414 -8.1282,-0.004 -11.59375,1.65625 -2.98952,-1.99879 -21.999659,-33.97037 -22.125,-38.5 z m 182.53125,32.1875 0,39.15625 -7.5625,0 c -2.77884,0 -6.99201,-11.12949 -8.21875,-13.875 L 267.03125,285.875 z m -131.34375,12.65625 55.5625,0 c 1.70411,0 1.74016,0.29431 3.15625,0.625 l 0,1.90625 c -1.41609,0.32802 -1.45214,0.625 -3.15625,0.625 l -55.5625,0 c -1.70545,0 -1.74015,-0.29698 -3.15625,-0.625 l 0,-1.90625 c 1.4161,-0.33069 1.4508,-0.625 3.15625,-0.625 z m -18.71875,12.15625 c 4.7243,0.30402 -0.0712,4.25 12.375,4.25 0.5187,0.98006 4.2711,7.69002 6.53125,11.40625 0,0 0.0902,0.15382 0.1875,0.3125 0.24135,0.39336 0.46024,0.72723 0.65625,1.03125 0.37069,0.5867 0.77148,1.28088 1.1875,1.90625 l 1.6875,2.5 c 0.43336,-0.22135 0.86198,-0.4269 1.25,-0.65625 0.95472,-0.56137 1.84402,-1.1543 2.71875,-1.625 2.00679,-1.0774 4.1839,-1.86033 8.4375,-1.875 5.66169,0.0293 8.13815,1.47423 11.125,3.125 0.0521,0.0281 0.1042,0.0344 0.15625,0.0625 2.91352,1.65344 6.33577,3.46684 12.4375,3.4375 1.83077,0.01 3.40575,-0.16815 4.8125,-0.4375 3.1802,-0.60271 5.44671,-1.7536 7.4375,-2.875 2.68684,-0.86272 3.784,-2.21615 6.4375,-2.4375 l 0,4.90625 c -3.25486,0.65337 -5.55763,1.90776 -7.59375,3.0625 -2.98819,1.65344 -5.46064,3.12825 -11.125,3.15625 -5.66169,-0.0281 -8.17073,-1.50281 -11.15625,-3.15625 -2.94951,-1.67077 -6.41395,-3.55792 -12.625,-3.53125 -6.21106,-0.0267 -9.64424,1.86048 -12.59375,3.53125 -0.0614,0.0347 -0.0948,0.0917 -0.15625,0.125 -0.33869,-0.62271 -0.68724,-1.27821 -1.03125,-1.90625 l -3.59375,-6.28125 c -2.9962,-4.87097 -6.56305,-10.90485 -7.09375,-11.90625 l -7.59375,0.0312 -2.875,-6.15625 z m 206.25,1.09375 13.40625,0 1.78125,0 0.4375,0 c -3.90291,4.83897 -8.0273,9.46805 -12.40625,13.875 l -1.3125,0 -7.625,0 -4.375,0 c 1.47476,-6.32707 5.44279,-10.76147 10.09375,-13.875 z m -26.5,0.65625 5.03125,0 0,5.65625 10.9375,0.0625 -2.09375,7.5 c -5.19766,-0.11467 -11.46019,-9.61319 -13.875,-13.21875 z m -6.96875,0.625 2.53125,0 c 2.2388,0 9.9709,10.49495 11.375,12.59375 l -5.71875,0.0312 -4.65625,-8.53125 -3.46875,2.90625 -0.0625,-7 z m 2.96875,7.03125 2.75,5.5625 -5.71875,0 0,-1.875 c 0,-1.74411 2.07002,-3.04879 2.96875,-3.6875 z m -188.25,7.84375 c 1.74278,-0.005 3.54822,0.31038 5.375,0.84375 2.0748,0.60537 4.19103,1.45969 6.3125,2.34375 0.51603,0.21335 1.0438,0.41165 1.5625,0.625 l 1.65625,2.625 1.09375,1.6875 2.09375,3.15625 c -2.1508,-0.58537 -3.75055,-1.46677 -5.5,-2.4375 -2.94952,-1.67077 -6.41527,-3.55792 -12.625,-3.53125 -6.208393,-0.0267 -9.645564,1.86048 -12.59375,3.53125 -1.270747,0.70538 -2.47033,1.37022 -3.84375,1.90625 -1.729443,-1.40009 -3.418978,-2.81982 -5.09375,-4.28125 3.329544,-0.48003 6.627376,-1.92917 9.90625,-3.28125 0.689377,-0.28668 1.374456,-0.56907 2.0625,-0.84375 3.288207,-1.31075 6.52022,-2.35175 9.59375,-2.34375 z m 161.9375,2.78125 0,2.53125 15.15625,0 0,-2.53125 9.46875,0 0,13.90625 5.6875,0 0,-13.90625 21.75,0 1.625,0 1.0625,0 c -12.69414,11.76741 -27.0816,21.70443 -42.78125,29.40625 l -1.71875,-3.09375 -14.84375,-26.25 4.59375,-0.0625 z M 104.4375,336.25 c 5.65902,0.0293 8.17073,1.50281 11.15625,3.15625 2.35748,1.33609 5.03524,2.76388 9.1875,3.28125 l 3.59375,5.5625 -0.1875,0 c -5.65904,-0.0307 -8.13948,-1.47289 -11.125,-3.125 -2.94952,-1.67211 -6.41527,-3.56192 -12.625,-3.53125 -4.458949,-0.0227 -7.490679,0.93101 -9.9375,2.09375 -1.297415,-0.95206 -2.541754,-1.91952 -3.8125,-2.90625 0.942726,-0.45069 1.807615,-0.90964 2.625,-1.375 2.985523,-1.65077 5.467309,-3.12691 11.125,-3.15625 z m 47.46875,0 c 5.66035,0.0293 8.20065,1.50281 11.1875,3.15625 2.94819,1.67077 6.38269,3.52934 12.59375,3.5 6.21372,0.0293 9.6429,-1.82923 12.59375,-3.5 1.91879,-1.0614 3.64351,-2.05163 6.125,-2.625 l 0,2.15625 0,3.375 c -2.51749,0.67204 -4.97543,1.72402 -7.40625,2.71875 -4.02425,1.67344 -7.92829,3.23342 -11.3125,3.21875 -3.1442,-10e-4 -5.34697,-0.39805 -7.09375,-0.96875 -2.6135,-0.84805 -4.32201,-2.1435 -6.6875,-3.40625 -2.35615,-1.25341 -5.34905,-2.29592 -10,-2.28125 -4.06426,-0.0201 -6.91919,0.7911 -9.25,1.8125 -0.67204,-1.25341 -1.34113,-2.5715 -2.0625,-3.90625 0.0694,-0.0413 0.11682,-0.0537 0.1875,-0.0937 2.98685,-1.65344 5.4633,-3.12692 11.125,-3.15625 z m 89.21875,3.9375 c 2.62816,1.76011 16.0558,23.51069 16.5625,28.375 l 0,0.0937 c -8.73122,2.98419 -17.74666,5.32807 -27.03125,6.9375 l 0.21875,-0.40625 10.25,-17.9375 0,-17.0625 z m -136.6875,4.40625 c 5.65902,0.0307 8.17073,1.47423 11.15625,3.125 2.94819,1.67477 6.38401,3.52934 12.59375,3.5 0.74271,0.002 1.42571,-0.0145 2.09375,-0.0625 L 133.4375,356 c -1.43209,0.35202 -3.11386,0.58308 -5.25,0.59375 -5.65904,-0.0293 -8.13948,-1.47156 -11.125,-3.125 -2.94952,-1.6721 -6.41527,-3.55925 -12.625,-3.53125 -0.28135,0 -0.5119,0.0233 -0.78125,0.0312 -2.12147,-1.36675 -4.222453,-2.79658 -6.28125,-4.25 1.806781,-0.67338 3.9463,-1.10767 7.0625,-1.125 z m 47.46875,0 c 5.66435,0.0373 7.82731,1.43365 10.6875,3.09375 1.41609,0.83472 2.9877,1.76146 5.0625,2.4375 2.0748,0.68004 4.6377,1.09642 8.03125,1.09375 4.25894,-0.016 8.40391,-1.78673 12.4375,-3.4375 2.15346,-0.89606 4.25846,-1.70713 6.28125,-2.3125 l 0,2.3125 0,2.625 c -3.25486,0.65337 -5.55763,1.90776 -7.59375,3.0625 -2.98819,1.65344 -5.46064,3.09566 -11.125,3.125 -5.66169,-0.0293 -8.17073,-1.47156 -11.15625,-3.125 -2.94951,-1.6721 -6.41395,-3.55925 -12.625,-3.53125 -2.13348,-0.01 -3.92658,0.20914 -5.5,0.5625 -0.68405,-1.30142 -1.43511,-2.81398 -2.3125,-4.46875 1.96946,-0.84405 4.23894,-1.4175 7.8125,-1.4375 z m 0,8.34375 c 5.66035,0.0307 8.20065,1.47156 11.1875,3.125 2.94819,1.6721 6.38269,3.53067 12.59375,3.5 6.21372,0.0307 9.6429,-1.8279 12.59375,-3.5 1.91879,-1.0614 3.64351,-2.02171 6.125,-2.59375 l 0,3.15625 0,2.125 c -3.25486,0.65337 -5.55763,1.87918 -7.59375,3.03125 -2.98819,1.65344 -5.46064,3.12425 -11.125,3.15625 -5.66169,-0.032 -8.17073,-1.50281 -11.15625,-3.15625 -2.94951,-1.67211 -6.41395,-3.56192 -12.625,-3.53125 -6.21106,-0.0307 -9.64424,1.85914 -12.59375,3.53125 -2.29215,1.26941 -4.29071,2.42622 -7.65625,2.90625 -7.79251,-3.23621 -15.28163,-7.01565 -22.46875,-11.28125 2.6335,0.5627 4.41679,1.55485 6.40625,2.65625 2.94819,1.6721 6.38401,3.53067 12.59375,3.5 4.90431,0.0227 8.05151,-1.12542 10.625,-2.4375 0.68537,-0.35202 1.3487,-0.71048 1.96875,-1.0625 0.30801,-0.17068 0.60356,-0.33732 0.90625,-0.5 0.70805,-0.11734 1.43679,-0.1875 2.1875,-0.1875 l 5.0625,0 c 0,0 -0.37445,-0.80358 -1.0625,-2.125 1.16407,-0.20268 2.45515,-0.30583 4.03125,-0.3125 z m 0,8.3125 c 5.66035,0.032 8.20065,1.50548 11.1875,3.15625 2.94819,1.67477 6.38269,3.53067 12.59375,3.5 6.21372,0.0307 9.6429,-1.8279 12.59375,-3.5 1.91879,-1.06007 3.64351,-2.05296 6.125,-2.625 l 0,3.6875 0,1.625 c -3.25486,0.65471 -5.55763,1.87651 -7.59375,3.03125 -2.98819,1.65344 -5.46064,3.09566 -11.125,3.125 -5.66169,-0.0293 -8.17073,-1.47156 -11.15625,-3.125 -2.94951,-1.67077 -6.41395,-3.55792 -12.625,-3.53125 -4.35629,-0.0201 -7.29994,0.90718 -9.71875,2.03125 -1.9468,-0.66671 -3.89638,-1.36037 -5.8125,-2.09375 1.69211,-0.63471 3.10216,-1.38629 4.40625,-2.125 2.98685,-1.65344 5.4633,-3.12425 11.125,-3.15625 z m 0,8.34375 c 5.66035,0.0307 8.20065,1.47156 11.1875,3.125 2.16309,1.22585 4.56296,2.60666 8.15625,3.21875 -8.39269,-1.34751 -16.57805,-3.29329 -24.53125,-5.78125 1.42543,-0.34536 3.06469,-0.5505 5.1875,-0.5625 z m 42.5,0.53125 0,1.625 0,6.375 c -7.68586,-0.23752 -15.2444,-0.95647 -22.65625,-2.125 1.1753,0.17303 2.49025,0.25684 3.9375,0.25 6.21372,0.0293 9.6429,-1.86048 12.59375,-3.53125 1.91879,-1.0614 3.64351,-2.02038 6.125,-2.59375 z"
         transform="matrix(0.8,0,0,-0.8,0,319.99999)"
         id="path2838"
         style="fill:#231f20;fill-opacity:1;fill-rule:nonzero;stroke:none" /></g></g></svg>